<svg xmlns="http://www.w3.org/2000/svg" width="31" height="31" viewBox="0 0 31 31">
  <g id="Group_1239" data-name="Group 1239" transform="translate(-258 -92)">
    <g id="Group_362" data-name="Group 362" transform="translate(-53 48)">
      <g id="Ellipse_3" data-name="Ellipse 3" transform="translate(311 44)" fill="#fff" stroke="#fff" stroke-width="1">
        <circle cx="15.5" cy="15.5" r="15.5" stroke="none"/>
        <circle cx="15.5" cy="15.5" r="15" fill="none"/>
      </g>
    </g>
    <path id="Path_1050" data-name="Path 1050" d="M5.772,0H2.886A2.886,2.886,0,0,0,0,2.886v.721A2.886,2.886,0,0,0,2.886,6.493h.721V7.937H2.164a.721.721,0,1,0,0,1.443H6.493a.721.721,0,1,0,0-1.443H5.05V6.493h.721A2.886,2.886,0,0,0,8.658,3.608V2.886A2.886,2.886,0,0,0,5.772,0ZM7.215,3.608A1.443,1.443,0,0,1,5.772,5.051H2.886A1.443,1.443,0,0,1,1.443,3.608V2.886A1.443,1.443,0,0,1,2.886,1.443H5.772A1.443,1.443,0,0,1,7.215,2.886ZM14.43,7.937H12.987A2.886,2.886,0,0,0,10.1,10.822V14.43a2.886,2.886,0,0,0,2.886,2.886H14.43a2.886,2.886,0,0,0,2.886-2.886V10.822A2.886,2.886,0,0,0,14.43,7.937Zm1.443,6.493a1.443,1.443,0,0,1-1.443,1.443H12.987a1.443,1.443,0,0,1-1.443-1.443V10.822a1.443,1.443,0,0,1,1.443-1.443H14.43a1.443,1.443,0,0,1,1.443,1.443V14.43ZM10.1,2.886a.721.721,0,0,1,.721-.721h1.443A2.164,2.164,0,0,1,14.43,4.329V5.772a.722.722,0,0,1-1.443,0V4.329a.721.721,0,0,0-.721-.721H10.822A.721.721,0,0,1,10.1,2.886ZM8.658,14.43a.721.721,0,0,1-.721.721H5.772a2.164,2.164,0,0,1-2.164-2.164V11.544a.721.721,0,1,1,1.443,0v1.443a.721.721,0,0,0,.721.721H7.936A.722.722,0,0,1,8.658,14.43Zm5.772,0a.722.722,0,1,1-.722-.721A.721.721,0,0,1,14.43,14.43Z" transform="translate(265 99)" fill="#edcd83"/>
  </g>
</svg>
